<svg width="72" height="18" viewBox="0 0 72 18" fill="none" xmlns="http://www.w3.org/2000/svg">
<path fill-rule="evenodd" clip-rule="evenodd" d="M9.2289 2.74286C8.6289 3.42857 7.68604 4.02857 6.74318 3.94286C6.57175 2.91429 7.08604 1.88571 7.60033 1.28571C8.20033 0.514286 9.2289 0 10.086 0C10.1718 0.942857 9.8289 1.97143 9.2289 2.74286ZM58.0003 1.02857C57.2289 1.02857 56.6289 1.62857 56.6289 2.4C56.6289 3.17143 57.2289 3.77143 58.0003 3.77143C58.7718 3.77143 59.3718 3.17143 59.3718 2.4C59.3718 1.62857 58.7718 1.02857 58.0003 1.02857ZM29.7146 5.31429V16.8857H31.9432V1.2H29.1146L24.1432 13.7143H24.0575L19.086 1.2H16.3432V16.8857H18.486V5.31429H18.5718L23.2003 16.8857H25.0003L29.6289 5.31429H29.7146ZM41.8003 16.8857H44.0289L43.9432 5.4H41.6289V12C41.6289 13.8 40.686 15 38.9718 15C37.4289 15 36.5718 14.0571 36.5718 12.3429V5.4H34.2575V12.7714C34.2575 15.4286 35.7146 17.0571 38.2003 17.0571C39.9146 17.0571 41.1146 16.2857 41.7146 14.9143H41.8003V16.8857ZM50.3718 5.22857C53.0289 5.22857 54.6575 6.68571 54.7432 8.82857H52.6003C52.4289 7.71429 51.6575 7.02857 50.3718 7.02857C49.086 7.02857 48.2289 7.62857 48.2289 8.57143C48.2289 9.25714 48.7432 9.77143 49.9432 10.0286L51.7432 10.4571C54.0575 10.9714 54.9146 11.9143 54.9146 13.5429C54.9146 15.6 53.0289 17.0571 50.3718 17.0571C47.5432 17.0571 45.8289 15.6857 45.6575 13.4571H47.9718C48.1432 14.6571 49.0003 15.2571 50.3718 15.2571C51.7432 15.2571 52.6003 14.6571 52.6003 13.7143C52.6003 12.9429 52.1718 12.5143 50.9718 12.2571L49.1718 11.8286C47.0289 11.3143 46.0003 10.2857 46.0003 8.57143C46.0003 6.6 47.7146 5.22857 50.3718 5.22857ZM56.8003 5.4H59.1146V16.8857H56.8003V5.4ZM66.2289 7.11429C67.7718 7.11429 68.6289 8.14286 68.886 9.34286L71.1146 9.25714C70.8575 7.02857 69.1432 5.14286 66.2289 5.14286C62.9718 5.14286 60.9146 7.45714 60.9146 11.0571C60.9146 14.7429 62.9718 16.9714 66.2289 16.9714C68.9718 16.9714 70.8575 15.2571 71.1146 12.8571H68.886C68.5432 14.2286 67.686 15 66.2289 15C64.4289 15 63.2289 13.5429 63.2289 11.0571C63.2289 8.65714 64.4289 7.11429 66.2289 7.11429ZM13.1718 5.82857C12.1432 4.28571 10.6003 4.11429 10.086 4.11429C9.23658 4.06119 8.45289 4.36983 7.83681 4.61246C7.45825 4.76155 7.14297 4.88571 6.91461 4.88571C6.66067 4.88571 6.32997 4.74753 5.94848 4.58813C5.42861 4.37091 4.81444 4.11429 4.17175 4.11429C2.80033 4.11429 1.4289 4.97143 0.743183 6.25714C-0.799674 8.82857 0.314611 12.6857 1.77175 14.8286C2.45747 15.8571 3.31461 16.9714 4.4289 16.9714C4.91452 16.9714 5.2664 16.8186 5.63789 16.6572C6.05322 16.4768 6.49307 16.2857 7.17175 16.2857C7.8376 16.2857 8.25057 16.4696 8.64878 16.647C9.01948 16.812 9.37739 16.9714 9.91461 16.9714C11.0289 16.9714 11.8003 15.9429 12.486 14.9143C13.2575 13.7143 13.6003 12.6 13.6003 12.5143C13.6003 12.5143 11.3718 11.6571 11.3718 9.08571C11.3718 7.14461 12.7784 6.11785 13.107 5.878C13.1412 5.85307 13.1637 5.83664 13.1718 5.82857Z" fill="white"/>
</svg>
