<svg width="80" height="24" viewBox="0 0 80 24" fill="none" xmlns="http://www.w3.org/2000/svg">
<path fill-rule="evenodd" clip-rule="evenodd" d="M11.9141 0.0395508C5.35394 0.0395508 0.0356445 5.39569 0.0356445 12.0027C0.0356445 18.61 5.35394 23.9657 11.9141 23.9657C18.4749 23.9657 23.7927 18.61 23.7927 12.0027C23.7927 5.39612 18.4749 0.0401222 11.9139 0.0401222L11.9141 0.0395508ZM17.3615 17.2938C17.1487 17.6453 16.692 17.7567 16.343 17.541C13.5541 15.8253 10.0432 15.4367 5.90841 16.3881C5.50997 16.4796 5.11281 16.2281 5.02203 15.8267C4.93082 15.4253 5.17947 15.0253 5.57891 14.9338C10.1037 13.8927 13.985 14.341 17.1161 16.2681C17.465 16.4838 17.5756 16.9424 17.3615 17.2938ZM17.5416 14.3438C17.9771 14.6138 18.5473 14.4753 18.8154 14.0364V14.0366C19.0834 13.5985 18.9459 13.0243 18.5104 12.7543C14.8437 10.485 9.48075 9.84641 5.16685 11.1647C4.67791 11.3147 4.40174 11.8347 4.54926 12.328C4.69791 12.8204 5.21522 13.0984 5.70501 12.9494C9.4816 11.7948 14.3487 12.3673 17.5416 14.3438ZM18.9402 10.6444C15.1118 8.35427 8.7955 8.14369 5.14033 9.26098C4.55338 9.44027 3.93267 9.10655 3.75479 8.51541C3.57692 7.92398 3.90798 7.29927 4.49536 7.11955C8.69125 5.83669 15.6664 6.08455 20.0741 8.71984C20.6032 9.03541 20.7762 9.72212 20.4627 10.2531C20.1507 10.7848 19.467 10.9601 18.9408 10.6444H18.9402ZM29.9373 9.51855C29.9373 10.245 30.3019 10.5907 32.353 11.0833L32.3572 11.0851C34.8551 11.6971 35.8749 12.6471 35.8707 14.3624C35.8707 16.3953 34.3288 17.7081 31.943 17.7081C30.2551 17.7081 28.692 17.1053 27.421 15.9624C27.3671 15.9138 27.3615 15.831 27.4083 15.7738L28.5317 14.4281C28.5544 14.401 28.587 14.3838 28.6239 14.381C28.6579 14.3796 28.6948 14.3896 28.7217 14.4138C29.8139 15.3653 30.7912 15.7724 31.9884 15.7724C33.0664 15.7724 33.7359 15.3024 33.7359 14.5467C33.7359 13.865 33.404 13.4836 31.4423 13.0283C29.1359 12.467 27.8012 11.7398 27.8012 9.68626C27.8012 7.77127 29.3487 6.43284 31.5629 6.43284C33.0693 6.43284 34.3572 6.88241 35.5019 7.80712C35.5572 7.85184 35.5686 7.93255 35.5274 7.99112L34.526 9.41284C34.5047 9.44269 34.4735 9.46255 34.4366 9.46798C34.4012 9.47369 34.3643 9.46498 34.3359 9.44312C33.3742 8.72112 32.4579 8.37041 31.5331 8.37041C30.5785 8.37041 29.9373 8.83226 29.9373 9.51855ZM41.2693 9.04612C40.2352 9.04612 39.387 9.45641 38.6863 10.2971V9.35084C38.6863 9.27612 38.6267 9.21527 38.5529 9.21527H36.7161C36.6423 9.21527 36.5827 9.27612 36.5827 9.35084V19.8653C36.5827 19.9396 36.6423 20.001 36.7161 20.001H38.5529C38.6267 20.001 38.6863 19.9396 38.6863 19.8653V16.5467C39.387 17.3367 40.2352 17.7238 41.2693 17.7238C43.1912 17.7238 45.1373 16.2338 45.1373 13.3854C45.1402 10.5364 43.1941 9.04598 41.2707 9.04598L41.2693 9.04612ZM40.8437 15.8481C42.1147 15.8481 43.0012 14.8353 43.0012 13.3854V13.3853C43.0012 11.9581 42.0934 10.9227 40.8437 10.9228C39.5884 10.9228 38.6409 11.9811 38.6409 13.3854C38.6409 14.7896 39.5884 15.8481 40.8437 15.8481ZM50.1232 9.04612C47.648 9.04612 45.709 10.9656 45.709 13.4164C45.709 15.841 47.6352 17.7396 50.0934 17.7396C52.5771 17.7396 54.5217 15.8267 54.5217 13.3854C54.5217 10.9524 52.5898 9.04641 50.1232 9.04641V9.04612ZM47.8139 13.3847C47.8139 14.7967 48.8069 15.8624 50.1232 15.8624C51.4522 15.8624 52.4168 14.8338 52.4168 13.4157C52.4168 12.0023 51.4182 10.937 50.0934 10.937C48.7728 10.937 47.8139 11.9663 47.8139 13.3847ZM59.8068 9.21527H57.7856V7.13441C57.7856 7.05984 57.726 6.99898 57.6522 6.99898H55.8154C55.7416 6.99898 55.6806 7.05984 55.6806 7.13441V9.21527H54.7983C54.7246 9.21527 54.665 9.27612 54.665 9.35084V10.9404C54.665 11.015 54.7246 11.076 54.7983 11.076H55.6806V15.1896C55.6806 16.851 56.5019 17.6938 58.1232 17.6938C58.7813 17.6938 59.3274 17.5567 59.8423 17.2624C59.8849 17.2396 59.9104 17.1938 59.9104 17.1453V15.631C59.9104 15.5853 59.8863 15.541 59.8466 15.5167C59.8069 15.491 59.7572 15.4896 59.7161 15.511C59.3629 15.6896 59.021 15.7724 58.6381 15.7724C58.0494 15.7724 57.7856 15.5024 57.7856 14.8996V11.0767H59.8068C59.8806 11.0767 59.9402 11.0158 59.9402 10.9411V9.35169C59.943 9.27698 59.8834 9.21612 59.8083 9.21612L59.8068 9.21527ZM66.848 8.96784V9.22341V9.22384H69.9856C70.0409 9.22384 70.0905 9.25855 70.1104 9.31098L72.2551 14.9481L74.2139 9.31469C74.2324 9.26055 74.2834 9.22384 74.3416 9.22384H76.2537C76.2976 9.22384 76.3388 9.24598 76.3629 9.28269C76.3884 9.31969 76.3941 9.36684 76.3771 9.40855L73.1912 17.6996C72.5317 19.411 71.7813 20.0481 70.4253 20.0481C69.7005 20.0481 69.1147 19.8967 68.465 19.5424C68.4026 19.5081 68.3771 19.4324 68.4069 19.3667L69.0295 17.991C69.0437 17.9567 69.0735 17.931 69.109 17.9181C69.143 17.9081 69.1827 17.911 69.2154 17.9281C69.5629 18.121 69.9047 18.2181 70.2281 18.2181C70.6281 18.2181 70.9217 18.0853 71.2196 17.4195L68.5927 11.0764H66.8778V17.4195C66.8778 17.4953 66.8182 17.5553 66.743 17.5553H64.9076C64.8338 17.5553 64.7728 17.4953 64.7728 17.4195V11.076H63.8905C63.8168 11.076 63.7558 11.015 63.7558 10.9404V9.34269C63.7558 9.26812 63.8168 9.20726 63.8905 9.20726H64.7728V8.81584C64.7728 6.99684 65.6707 6.03484 67.3657 6.03484C68.0636 6.03484 68.5288 6.14669 68.892 6.25569C68.9501 6.27326 68.987 6.32598 68.987 6.38555V7.94412C68.987 7.98755 68.9671 8.02855 68.9317 8.05412C68.8976 8.07969 68.8537 8.08641 68.8111 8.07298C68.4664 7.95726 68.1586 7.88069 67.7756 7.88069C67.1345 7.88069 66.848 8.21598 66.848 8.96784ZM62.7657 9.21527H60.9288C60.8551 9.21527 60.7941 9.27612 60.7941 9.35084V17.4196C60.7941 17.4953 60.8551 17.5553 60.9288 17.5553H62.7657C62.8395 17.5553 62.9005 17.4953 62.9005 17.4196V9.35141C62.9005 9.27669 62.8409 9.21584 62.7657 9.21584V9.21527ZM60.5402 6.86698C60.5402 6.13427 61.1303 5.54112 61.8579 5.54112C62.5842 5.54112 63.1742 6.13441 63.1742 6.86698C63.1742 7.60012 62.5856 8.19398 61.8579 8.19398C61.1303 8.19398 60.5402 7.60012 60.5402 6.86698ZM77.9459 11.8097C77.2196 11.8097 76.6537 11.2218 76.6537 10.508C76.6537 9.79412 77.2267 9.19955 77.9529 9.19955C78.6792 9.19955 79.2451 9.78726 79.2451 10.5006C79.2451 11.2144 78.6721 11.8097 77.9459 11.8097ZM76.7898 10.508C76.7898 9.85898 77.2905 9.32898 77.9529 9.32898C78.6111 9.32898 79.109 9.85184 79.109 10.5006C79.109 11.15 78.6083 11.6796 77.9459 11.6796C77.2877 11.6796 76.7898 11.1567 76.7898 10.508ZM78.2395 10.6344L78.6054 11.1498H78.2962L77.9671 10.677H77.6849V11.1498H77.4267V9.78355H78.031C78.3473 9.78355 78.5544 9.94598 78.5544 10.2194C78.5558 10.4434 78.4267 10.5803 78.2409 10.6344H78.2395ZM77.6849 10.018H78.021C78.1884 10.018 78.2891 10.0933 78.2891 10.2338C78.2891 10.3674 78.1884 10.4501 78.021 10.4501H77.6849V10.018Z" fill="white"/>
</svg>
