<svg width="45" height="28" viewBox="0 0 45 28" fill="none" xmlns="http://www.w3.org/2000/svg">
<path fill-rule="evenodd" clip-rule="evenodd" d="M29.4676 11.4984C29.1686 11.7007 28.7206 11.8527 28.1726 11.8527C27.326 11.8527 26.529 11.7516 25.7322 11.4984C25.5329 11.4476 25.3834 11.397 25.2839 11.397C25.1344 11.397 25.0847 11.4984 25.0847 11.7007V12.2073C25.0847 12.359 25.1344 12.4604 25.1842 12.5615C25.2342 12.6121 25.3337 12.7135 25.4832 12.7641C26.28 13.1184 27.1765 13.2704 28.1726 13.2704C29.2186 13.2704 30.0154 13.0172 30.6629 12.511C31.3102 12.0047 31.6092 11.3464 31.6092 10.4859C31.6092 9.87818 31.4597 9.42248 31.161 9.01736C30.8622 8.66307 30.3639 8.30852 29.6666 8.05539L28.2721 7.49853C27.7243 7.29597 27.3258 7.09341 27.1765 6.89085C26.9772 6.68854 26.8777 6.48598 26.8777 6.13143C26.8777 5.37202 27.4255 4.9669 28.5711 4.9669C29.2186 4.9669 29.8659 5.0683 30.4637 5.27086C30.6629 5.32144 30.8122 5.37202 30.862 5.37202C31.0115 5.37202 31.111 5.27086 31.111 5.0683V4.56203C31.111 4.41005 31.0612 4.30889 31.0115 4.20748C30.9617 4.10633 30.862 4.05575 30.7127 4.00492C29.9657 3.75204 29.2186 3.60005 28.4713 3.60005C27.525 3.60005 26.7282 3.85319 26.1305 4.30889C25.5329 4.76434 25.2339 5.4226 25.2339 6.18201C25.2339 7.34655 25.8814 8.20737 27.1765 8.71364L28.6706 9.2705C29.1686 9.47306 29.4674 9.62504 29.6666 9.8276C29.8659 10.0299 29.9157 10.2325 29.9157 10.5364C29.9157 10.9413 29.7664 11.2959 29.4676 11.4984ZM34.7967 0.410161C34.5974 0.207851 34.2986 0.106445 33.9501 0.106445C33.6013 0.106445 33.3523 0.207851 33.1531 0.410161C32.9538 0.612972 32.8543 0.86586 32.8543 1.16983C32.8543 1.47354 32.9538 1.77726 33.1531 1.92924C33.3523 2.1318 33.6013 2.23296 33.9501 2.23296C34.2986 2.23296 34.5476 2.1318 34.7469 1.92924C34.9462 1.72668 35.0457 1.47354 35.0457 1.16983C35.0457 0.86586 34.9959 0.562144 34.7967 0.410161ZM34.4979 3.85319H33.4518C33.2031 3.85319 33.1033 3.95435 33.1033 4.20748V12.6121C33.1033 12.8653 33.2031 12.9667 33.4518 12.9667H34.4979C34.7469 12.9667 34.8464 12.8653 34.8464 12.6121V4.20748C34.8464 4.00492 34.7469 3.85319 34.4979 3.85319ZM39.1796 5.8783C39.6279 5.37202 40.325 5.11888 41.3213 5.11888C41.8193 5.11888 42.3173 5.16946 42.7656 5.32144C42.9151 5.37202 42.9648 5.37202 43.0643 5.37202C43.2139 5.37202 43.3134 5.27087 43.3134 5.01773V4.51145C43.3134 4.35947 43.2636 4.20748 43.2139 4.15691C43.1639 4.10633 43.0643 4.00492 42.9648 3.95435C42.3173 3.80261 41.6698 3.65063 41.0722 3.65063C39.6777 3.65063 38.6316 4.05575 37.8348 4.91632C37.0878 5.72656 36.6893 6.94168 36.6893 8.46051C36.6893 9.97934 37.038 11.1439 37.7851 11.9541C38.5321 12.7641 39.5779 13.169 40.9725 13.169C41.7195 13.169 42.4171 13.0678 42.9648 12.8147C43.1143 12.7641 43.2139 12.7135 43.2636 12.6121C43.3134 12.5615 43.3134 12.4096 43.3134 12.2578V11.7516C43.3134 11.4982 43.2139 11.397 43.0643 11.397C43.0146 11.397 42.9151 11.397 42.8153 11.4476C42.2676 11.5996 41.7198 11.7007 41.2215 11.7007C40.2754 11.7007 39.5782 11.4476 39.1299 10.9413C38.6816 10.435 38.4824 9.62504 38.4824 8.56166V8.30852C38.5321 7.19482 38.7314 6.38457 39.1796 5.8783ZM12.185 12.9667H13.231C13.48 12.9667 13.5795 12.8653 13.5795 12.6121V6.28342C13.5795 5.4226 13.3803 4.76434 12.9323 4.30889C12.484 3.85319 11.8862 3.60005 11.0394 3.60005C9.8941 3.60005 8.69879 4.00492 7.55323 4.86574C7.15471 4.00492 6.40767 3.60005 5.31186 3.60005C4.2163 3.60005 3.12049 4.00492 2.02469 4.76434L1.92518 4.20748C1.92518 4.05575 1.87543 4.00492 1.77567 3.95435C1.72592 3.90377 1.62641 3.90377 1.52666 3.90377H0.729868C0.480854 3.90377 0.381348 4.00492 0.381348 4.25831V12.663C0.381348 12.9161 0.480854 13.0172 0.729868 13.0172H1.77567C2.02469 13.0172 2.12444 12.9161 2.12444 12.663V5.82772C2.97099 5.32144 3.81778 5.01773 4.71433 5.01773C5.21235 5.01773 5.56112 5.16946 5.76013 5.47343C5.95939 5.77714 6.1089 6.18201 6.1089 6.78969V12.6121C6.1089 12.8653 6.20841 12.9667 6.45742 12.9667H7.50347C7.75249 12.9667 7.85199 12.8653 7.85199 12.6121V6.08086C7.85199 5.9797 7.85199 5.8783 7.85199 5.82772C8.74854 5.27086 9.59509 5.01773 10.4419 5.01773C10.9399 5.01773 11.2887 5.16946 11.4879 5.47343C11.6872 5.77714 11.8365 6.18226 11.8365 6.78969V12.6121C11.8365 12.8653 11.936 12.9667 12.185 12.9667ZM21.648 4.20748V10.9413C20.8014 11.4984 19.9546 11.8021 19.1081 11.8021C18.5601 11.8021 18.1618 11.6501 17.9128 11.3464C17.6638 11.0427 17.564 10.587 17.564 9.92876V4.20748C17.564 3.95435 17.4645 3.85319 17.2155 3.85319H16.1694C15.9204 3.85319 15.8209 3.95435 15.8209 4.20748V10.4859C15.8209 11.3464 16.0202 12.0553 16.4682 12.511C16.9167 12.9667 17.564 13.2198 18.4108 13.2198C19.5564 13.2198 20.7019 12.8147 21.7975 12.0047L21.8972 12.6121C21.8972 12.7641 21.947 12.8147 22.0465 12.8653C22.0965 12.9161 22.196 12.9161 22.3453 12.9161H23.0925C23.3416 12.9161 23.4411 12.8147 23.4411 12.5615V4.20748C23.4411 3.95435 23.3416 3.85319 23.0925 3.85319H22.0465C21.7477 3.85319 21.648 4.00492 21.648 4.20748Z" fill="white"/>
<path fill-rule="evenodd" clip-rule="evenodd" d="M41.4209 24.4596C44.0108 22.2317 44.7081 17.6244 44.1603 16.9155C43.9113 16.6118 42.716 16.3081 41.2217 16.3081C39.6281 16.3081 37.7355 16.6624 36.2911 17.675C35.8429 17.9789 35.9424 18.3838 36.3907 18.3332C37.9347 18.1307 41.4209 17.7258 42.0685 18.5358C42.666 19.3458 41.3712 22.6876 40.7736 24.1559C40.6241 24.6113 40.9726 24.7633 41.4209 24.4596ZM39.3291 19.7003C33.9003 22.0294 27.9735 23.1937 22.5947 23.1937C14.6258 23.1937 6.90586 20.966 0.680278 17.2701C0.580525 17.2195 0.481018 17.1687 0.381512 17.1687C0.0327452 17.1687 -0.166515 17.5738 0.182252 17.9281C5.95956 23.2445 13.6297 26.4341 22.0964 26.4341C28.1727 26.4341 35.1953 24.5102 40.0264 20.8648C40.8731 20.2572 40.1759 19.3458 39.3291 19.7003Z" fill="white"/>
</svg>
