<?xml version="1.0" encoding="UTF-8"?>
<svg width="51px" height="30px" viewBox="0 0 51 30" version="1.1" xmlns="http://www.w3.org/2000/svg" xmlns:xlink="http://www.w3.org/1999/xlink">
    <title>amazon-music-seeklogo.com</title>
    <g id="Desktop" stroke="none" stroke-width="1" fill="none" fill-rule="evenodd">
        <g id="amazon-music-seeklogo.com">
            <g id="Group-3" transform="translate(0.283333, 0.000000)"></g>
            <g id="Group-6">
                <path d="M33.898,12.9970755 C33.5540333,13.2257547 33.03865,13.3975472 32.4082333,13.3975472 C31.4344167,13.3975472 30.51755,13.2832075 29.6009667,12.9970755 C29.37175,12.9396226 29.1997667,12.8824528 29.0853,12.8824528 C28.9133167,12.8824528 28.8560833,12.9970755 28.8560833,13.2257547 L28.8560833,13.7983019 C28.8560833,13.9698113 28.9133167,14.084434 28.97055,14.1987736 C29.0280667,14.2559434 29.1425333,14.370566 29.3145167,14.4277358 C30.2311,14.8282075 31.2624333,15 32.4082333,15 C33.61155,15 34.5281333,14.7138679 35.2730167,14.1416038 C36.0176167,13.5693396 36.3615833,12.825283 36.3615833,11.8525472 C36.3615833,11.1656604 36.1896,10.650566 35.8459167,10.1926415 C35.5022333,9.79216981 34.92905,9.39141509 34.1269333,9.10528302 L32.5227,8.47584906 C31.8925667,8.24688679 31.4341333,8.01792453 31.2624333,7.78896226 C31.0332167,7.56028302 30.91875,7.33132075 30.91875,6.93056604 C30.91875,6.07216981 31.5488833,5.61424528 32.8666667,5.61424528 C33.61155,5.61424528 34.35615,5.72886792 35.0438,5.95783019 C35.2730167,6.015 35.4447167,6.07216981 35.50195,6.07216981 C35.6739333,6.07216981 35.7884,5.95783019 35.7884,5.72886792 L35.7884,5.15660377 C35.7884,4.98481132 35.7311667,4.8704717 35.6739333,4.75584906 C35.6167,4.64150943 35.50195,4.58433962 35.33025,4.52688679 C34.4709,4.24103774 33.61155,4.06924528 32.7519167,4.06924528 C31.66335,4.06924528 30.7467667,4.35537736 30.0591167,4.8704717 C29.37175,5.38528302 29.0277833,6.12933962 29.0277833,6.98773585 C29.0277833,8.3040566 29.7726667,9.27707547 31.2624333,9.84933962 L32.9811333,10.4787736 C33.5540333,10.7077358 33.8977167,10.8795283 34.1269333,11.1084906 C34.35615,11.3371698 34.4133833,11.5661321 34.4133833,11.909717 C34.4133833,12.3673585 34.2416833,12.7681132 33.898,12.9970755 Z M40.0282,0.463584906 C39.7989833,0.23490566 39.4553,0.120283019 39.0543833,0.120283019 C38.6531833,0.120283019 38.3667333,0.23490566 38.1375167,0.463584906 C37.9083,0.692830189 37.7938333,0.978679245 37.7938333,1.32226415 C37.7938333,1.66556604 37.9083,2.00886792 38.1375167,2.18066038 C38.3667333,2.40962264 38.6531833,2.52396226 39.0543833,2.52396226 C39.4553,2.52396226 39.74175,2.40962264 39.9709667,2.18066038 C40.2001833,1.95169811 40.31465,1.66556604 40.31465,1.32226415 C40.31465,0.978679245 40.2574167,0.635377358 40.0282,0.463584906 Z M39.6845167,4.35537736 L38.4812,4.35537736 C38.1950333,4.35537736 38.0802833,4.46971698 38.0802833,4.75584906 L38.0802833,14.2559434 C38.0802833,14.5420755 38.1950333,14.6566981 38.4812,14.6566981 L39.6845167,14.6566981 C39.9709667,14.6566981 40.0854333,14.5420755 40.0854333,14.2559434 L40.0854333,4.75584906 C40.0854333,4.52688679 39.9709667,4.35537736 39.6845167,4.35537736 Z M45.0701167,6.64443396 C45.5857833,6.07216981 46.3876167,5.78603774 47.5337,5.78603774 C48.1066,5.78603774 48.6795,5.84320755 49.1951667,6.015 C49.36715,6.07216981 49.4243833,6.07216981 49.53885,6.07216981 C49.7108333,6.07216981 49.8253,5.95783019 49.8253,5.67169811 L49.8253,5.09943396 C49.8253,4.92764151 49.7680667,4.75584906 49.7108333,4.69867925 C49.6533167,4.64150943 49.53885,4.52688679 49.4243833,4.46971698 C48.6795,4.29820755 47.9346167,4.12641509 47.24725,4.12641509 C45.6430167,4.12641509 44.4397,4.58433962 43.5231167,5.55707547 C42.6637667,6.47292453 42.2053333,7.84641509 42.2053333,9.56320755 C42.2053333,11.28 42.6065333,12.5963208 43.4658833,13.5121698 C44.3252333,14.4277358 45.5282667,14.8853774 47.1325,14.8853774 C47.99185,14.8853774 48.79425,14.7710377 49.4243833,14.4849057 C49.5963667,14.4277358 49.7108333,14.370566 49.7680667,14.2559434 C49.8253,14.1987736 49.8253,14.0269811 49.8253,13.8554717 L49.8253,13.2832075 C49.8253,12.9967925 49.7108333,12.8824528 49.53885,12.8824528 C49.4816167,12.8824528 49.36715,12.8824528 49.2524,12.9396226 C48.6222667,13.1114151 47.9921333,13.2257547 47.41895,13.2257547 C46.3306667,13.2257547 45.52855,12.9396226 45.0128833,12.3673585 C44.4972167,11.7950943 44.268,10.8795283 44.268,9.67754717 L44.268,9.39141509 C44.3252333,8.13254717 44.55445,7.21669811 45.0701167,6.64443396 Z M14.0170667,14.6566981 L15.2203833,14.6566981 C15.5068333,14.6566981 15.6213,14.5420755 15.6213,14.2559434 L15.6213,7.10235849 C15.6213,6.12933962 15.3920833,5.38528302 14.8767,4.8704717 C14.3610333,4.35537736 13.6733833,4.06924528 12.6992833,4.06924528 C11.3817833,4.06924528 10.0067667,4.52688679 8.68898333,5.49990566 C8.23055,4.52688679 7.3712,4.06924528 6.11065,4.06924528 C4.85038333,4.06924528 3.58983333,4.52688679 2.32928333,5.38528302 L2.21481667,4.75584906 C2.21481667,4.58433962 2.15758333,4.52688679 2.04283333,4.46971698 C1.9856,4.41254717 1.87113333,4.41254717 1.75638333,4.41254717 L0.8398,4.41254717 C0.55335,4.41254717 0.438883333,4.52688679 0.438883333,4.81330189 L0.438883333,14.3133962 C0.438883333,14.5995283 0.55335,14.7138679 0.8398,14.7138679 L2.04283333,14.7138679 C2.32928333,14.7138679 2.44403333,14.5995283 2.44403333,14.3133962 L2.44403333,6.58726415 C3.41785,6.015 4.39195,5.67169811 5.42328333,5.67169811 C5.99618333,5.67169811 6.39738333,5.84320755 6.62631667,6.18679245 C6.85553333,6.53009434 7.02751667,6.98773585 7.02751667,7.67462264 L7.02751667,14.2559434 C7.02751667,14.5420755 7.14198333,14.6566981 7.42843333,14.6566981 L8.63175,14.6566981 C8.9182,14.6566981 9.03266667,14.5420755 9.03266667,14.2559434 L9.03266667,6.87339623 C9.03266667,6.7590566 9.03266667,6.64443396 9.03266667,6.58726415 C10.064,5.95783019 11.0378167,5.67169811 12.0119167,5.67169811 C12.5848167,5.67169811 12.9860167,5.84320755 13.2152333,6.18679245 C13.44445,6.53009434 13.61615,6.98801887 13.61615,7.67462264 L13.61615,14.2559434 C13.61615,14.5420755 13.7306167,14.6566981 14.0170667,14.6566981 Z M24.9027333,4.75584906 L24.9027333,12.3673585 C23.9289167,12.9970755 22.9548167,13.3403774 21.981,13.3403774 C21.3505833,13.3403774 20.8924333,13.1685849 20.6059833,12.825283 C20.3195333,12.4819811 20.2047833,11.9668868 20.2047833,11.2228302 L20.2047833,4.75584906 C20.2047833,4.46971698 20.0903167,4.35537736 19.8038667,4.35537736 L18.60055,4.35537736 C18.3141,4.35537736 18.1996333,4.46971698 18.1996333,4.75584906 L18.1996333,11.8525472 C18.1996333,12.825283 18.42885,13.6265094 18.9442333,14.1416038 C19.4601833,14.6566981 20.2047833,14.9428302 21.1788833,14.9428302 C22.4966667,14.9428302 23.81445,14.4849057 25.0747167,13.5693396 L25.1894667,14.2559434 C25.1894667,14.4277358 25.2467,14.4849057 25.3611667,14.5420755 C25.4186833,14.5995283 25.53315,14.5995283 25.70485,14.5995283 L26.5644833,14.5995283 C26.8509333,14.5995283 26.9654,14.4849057 26.9654,14.1987736 L26.9654,4.75584906 C26.9654,4.46971698 26.8509333,4.35537736 26.5644833,4.35537736 L25.3611667,4.35537736 C25.0174833,4.35537736 24.9027333,4.52688679 24.9027333,4.75584906 L24.9027333,4.75584906 Z" id="Fill-1" fill="#FFFFFF"></path>
                <path d="M47.6481667,27.6478302 C50.6274167,25.1295283 51.4295333,19.9216981 50.7994,19.1204717 C50.51295,18.7771698 49.1379333,18.4338679 47.41895,18.4338679 C45.5857833,18.4338679 43.40865,18.8343396 41.7471833,19.9788679 C41.2315167,20.3224528 41.3459833,20.7800943 41.86165,20.7229245 C43.6378667,20.4939623 47.6481667,20.0363208 48.39305,20.9518868 C49.0804167,21.8674528 47.5909333,25.6449057 46.9035667,27.3045283 C46.7315833,27.8193396 47.1325,27.9911321 47.6481667,27.6478302 Z M45.2418167,22.2682075 C38.9968667,24.9008491 32.1790167,26.2168868 25.9915833,26.2168868 C16.8246167,26.2168868 7.9441,23.6988679 0.782566667,19.5212264 C0.667816667,19.4640566 0.55335,19.4066038 0.438883333,19.4066038 C0.0376833333,19.4066038 -0.191533333,19.8645283 0.209666667,20.265 C6.85553333,26.2743396 15.6788167,29.879717 25.4184,29.879717 C32.4082333,29.879717 40.4866333,27.705 46.0439333,23.5845283 C47.0180333,22.8976415 46.2159167,21.8674528 45.2418167,22.2682075 L45.2418167,22.2682075 Z" id="Fill-4" fill="#FF9900"></path>
            </g>
        </g>
    </g>
</svg>