<svg xmlns="http://www.w3.org/2000/svg" viewBox="0 0 281 83" width="281" height="83">
  <defs>
    <clipPath clipPathUnits="userSpaceOnUse" id="cp1">
      <path d="M0 0L281 0L281 83L0 83Z" />
    </clipPath>
  </defs>
  <style>
    tspan { white-space:pre }
    .shp0 { fill: #000000 }
    .shp1 { fill: #909295 }
    .shp2 { fill: #c6002b }
    .shp3 { fill: #ffffff }
  </style>
  <g id="Page 1" clip-path="url(#cp1)">
    <path id="Path 1" class="shp0" d="M9.85 81.9C5.01 81.9 1.07 77.97 1.07 73.14L1.07 9.51C1.07 4.67 5.01 0.74 9.85 0.74L271.24 0.74C276.08 0.74 280.01 4.67 280.01 9.51L280.01 73.14C280.01 75.48 279.1 77.68 277.45 79.34C275.79 80.99 273.59 81.9 271.25 81.9L9.85 81.9Z" />
    <path id="Path 2" fill-rule="evenodd" class="shp1" d="M280.79 9.51L280.8 73.14C280.8 78.4 276.51 82.68 271.25 82.68L9.85 82.68C4.58 82.68 0.29 78.4 0.29 73.14L0.29 9.51C0.29 4.24 4.58 -0.04 9.85 -0.04L271.24 -0.04C276.51 -0.04 280.79 4.24 280.79 9.51ZM9.85 1.52C5.44 1.52 1.85 5.1 1.85 9.51L1.85 73.14C1.85 77.55 5.44 81.12 9.85 81.12L271.25 81.12C275.66 81.12 279.23 77.55 279.23 73.14L279.23 73.14L279.23 9.51C279.23 5.1 275.66 1.52 271.24 1.52L9.85 1.52Z" />
    <path id="Path 3" fill-rule="evenodd" class="shp2" d="M60.51 39.96C60.51 44.32 57.75 47.46 54.86 50.37L43.58 61.04C42.99 61.6 42.01 61.18 42.01 60.37L42.01 52.06C42.01 49.65 40.07 47.7 37.66 47.7C35.26 47.7 33.31 49.65 33.31 52.06L33.31 60.37C33.31 61.18 32.34 61.6 31.75 61.04L20.46 50.37C17.58 47.46 14.81 44.32 14.81 39.96C14.81 33.08 20.38 27.51 27.26 27.51C31.58 27.51 35.43 29.79 37.66 33.13C39.9 29.79 43.75 27.51 48.07 27.51C54.94 27.51 60.51 33.08 60.51 39.96ZM48.82 39.78L48.82 39.76C48.81 37.17 47.38 34.81 45.09 33.61C44.66 33.39 44.14 33.55 43.92 33.97C43.7 34.39 43.86 34.91 44.28 35.14C46.01 36.04 47.09 37.82 47.09 39.77C47.08 41.89 45.74 44.06 43.75 45.18C43.33 45.41 43.18 45.94 43.41 46.35C43.57 46.64 43.87 46.79 44.17 46.79C44.31 46.79 44.45 46.76 44.59 46.68C47.11 45.27 48.8 42.5 48.82 39.78ZM41.4 40.41C41.4 38.34 39.73 36.67 37.66 36.66C35.6 36.67 33.92 38.34 33.92 40.41C33.92 42.47 35.6 44.15 37.66 44.15C39.73 44.15 41.4 42.47 41.4 40.41ZM31.58 45.18C29.58 44.06 28.24 41.89 28.24 39.77C28.24 37.82 29.32 36.04 31.04 35.14C31.47 34.91 31.63 34.39 31.41 33.97C31.18 33.55 30.66 33.39 30.24 33.61C27.95 34.81 26.52 37.17 26.51 39.76L26.51 39.78C26.52 42.5 28.22 45.27 30.74 46.68C30.87 46.76 31.02 46.79 31.16 46.79C31.46 46.79 31.75 46.64 31.91 46.35C32.14 45.94 32 45.41 31.58 45.18ZM26.29 48.34C22.96 45.38 21.27 42.38 21.27 39.41L21.27 39.37C21.27 36.95 22.78 34.11 24.71 32.9C25.12 32.65 25.24 32.11 24.99 31.71C24.73 31.31 24.2 31.19 23.8 31.44C21.37 32.96 19.54 36.37 19.54 39.37L19.54 39.41C19.54 42.89 21.43 46.33 25.15 49.63C25.31 49.77 25.51 49.84 25.72 49.84C25.95 49.84 26.19 49.75 26.36 49.55C26.68 49.2 26.65 48.65 26.29 48.34ZM55.78 39.37C55.78 36.37 53.95 32.96 51.53 31.44C51.12 31.19 50.59 31.31 50.34 31.71C50.09 32.11 50.21 32.65 50.61 32.9C52.54 34.11 54.06 36.95 54.06 39.37L54.06 39.41C54.06 42.38 52.37 45.38 49.04 48.34C48.68 48.65 48.65 49.2 48.96 49.55C49.13 49.75 49.37 49.84 49.61 49.84C49.81 49.84 50.02 49.77 50.18 49.63C53.9 46.33 55.78 42.89 55.78 39.41L55.78 39.37Z" />
    <path id="Path 4" fill-rule="evenodd" class="shp1" d="M166.31 36.89C166.31 36.18 166.89 35.6 167.57 35.6L176.01 35.6C178.79 35.6 181.01 36.44 182.43 37.86C183.52 38.95 184.17 40.54 184.17 42.31L184.17 42.37C184.17 46.08 181.65 48.24 178.14 48.92L183.75 56.13C184.01 56.42 184.17 56.71 184.17 57.07C184.17 57.74 183.52 58.33 182.88 58.33C182.36 58.33 181.98 58.04 181.69 57.65L175.34 49.4L168.86 49.4L168.86 57.04C168.86 57.74 168.28 58.33 167.57 58.33C166.89 58.33 166.31 57.74 166.31 57.04L166.31 36.89ZM175.79 47.11C179.17 47.11 181.59 45.37 181.59 42.47L181.59 42.4C181.59 39.63 179.46 37.96 175.82 37.96L168.86 37.96L168.86 47.11L175.79 47.11ZM186.97 56.49L196.12 36.47C196.44 35.76 196.93 35.35 197.73 35.35L197.86 35.35C198.64 35.35 199.15 35.76 199.44 36.47L208.6 56.45C208.69 56.68 208.76 56.91 208.76 57.1C208.76 57.78 208.21 58.33 207.53 58.33C206.92 58.33 206.5 57.91 206.27 57.39L203.92 52.2L191.54 52.2L189.19 57.45C188.97 58 188.55 58.33 187.97 58.33C187.32 58.33 186.81 57.81 186.81 57.16C186.81 56.97 186.84 56.75 186.97 56.49ZM202.92 49.88L197.73 38.34L192.54 49.88L202.92 49.88ZM212.36 36.89C212.36 36.18 212.94 35.6 213.62 35.6L220.2 35.6C227.29 35.6 232.18 40.47 232.18 46.82L232.18 46.88C232.18 53.23 227.29 58.16 220.2 58.16L213.62 58.16C212.94 58.16 212.36 57.58 212.36 56.87L212.36 36.89ZM220.2 55.81C225.9 55.81 229.54 51.94 229.54 46.95L229.54 46.88C229.54 41.89 225.9 37.96 220.2 37.96L214.91 37.96L214.91 55.81L220.2 55.81ZM236.53 36.73C236.53 36.02 237.11 35.44 237.79 35.44C238.5 35.44 239.07 36.02 239.07 36.73L239.07 57.04C239.07 57.74 238.5 58.33 237.79 58.33C237.11 58.33 236.53 57.74 236.53 57.04L236.53 36.73ZM243.43 46.95L243.43 46.88C243.43 40.66 248.1 35.22 254.96 35.22C261.83 35.22 266.44 40.6 266.44 46.82L266.44 46.88C266.44 53.1 261.76 58.55 254.9 58.55C248.04 58.55 243.43 53.17 243.43 46.95ZM263.8 46.95L263.8 46.88C263.8 41.76 260.06 37.57 254.9 37.57C249.74 37.57 246.07 41.7 246.07 46.82L246.07 46.88C246.07 52.01 249.81 56.2 254.96 56.2C260.12 56.2 263.8 52.07 263.8 46.95Z" />
    <path id="Path 5" fill-rule="evenodd" class="shp3" d="M75.78 35.32L82.11 35.32L82.11 43.87L90.24 43.87L90.24 35.32L96.57 35.32L96.57 58.16L90.24 58.16L90.24 49.48L82.11 49.48L82.11 58.16L75.78 58.16L75.78 35.32ZM98.4 49.42L98.4 49.35C98.4 44.2 102.08 40.12 107.3 40.12C113.41 40.12 116.21 44.59 116.21 49.78C116.21 50.17 116.21 50.62 116.18 51.05L104.37 51.05C104.86 52.98 106.26 53.96 108.18 53.96C109.65 53.96 110.83 53.4 112.1 52.16L115.53 55C113.83 57.15 111.38 58.59 107.86 58.59C102.31 58.59 98.4 54.9 98.4 49.42ZM110.4 47.8C110.4 45.91 109.03 44.69 107.34 44.69C105.7 44.69 104.41 45.95 104.27 47.8L110.4 47.8ZM137.07 40.51L143.27 40.51L143.27 44.06C144.28 41.65 145.91 40.09 148.85 40.21L148.85 46.74L148.33 46.74C145.1 46.74 143.27 48.6 143.27 52.68L143.27 58.16L137.07 58.16L137.07 40.51ZM152.72 52.68L152.72 45.5L150.63 45.5L150.63 40.51L152.72 40.51L152.72 36.04L158.92 36.04L158.92 40.51L163.03 40.51L163.03 45.5L158.92 45.5L158.92 51.48C158.92 52.72 159.48 53.23 160.62 53.23C161.44 53.23 162.22 53.01 162.97 52.65L162.97 57.51C161.86 58.13 160.39 58.52 158.66 58.52C154.94 58.52 152.72 56.89 152.72 52.68ZM72.99 36.96C72.99 38.78 71.52 40.25 69.7 40.25C67.88 40.25 66.41 38.78 66.41 36.96C66.41 35.15 67.88 33.67 69.7 33.67C71.52 33.67 72.99 35.15 72.99 36.96ZM73.05 45.04L73.05 58.16L66.35 58.16L66.35 45.04C66.35 43.25 67.8 41.8 69.59 41.8L69.81 41.8C71.6 41.8 73.05 43.25 73.05 45.04Z" />
    <path id="Path 6" fill-rule="evenodd" class="shp3" d="M134.67 49.36C134.67 49.42 134.66 49.47 134.66 49.53L134.66 58.16L128.79 58.16L128.79 56.46C127.61 57.69 125.85 58.59 123.56 58.59C119.32 58.59 116.86 56.74 116.86 53.29C116.86 49.71 119.53 47.82 124.6 47.75L128.68 47.73L128.68 47.6C128.17 45.71 126.78 44.75 124.88 44.75C123.41 44.75 122.24 45.31 120.96 46.55L117.53 43.71C119.23 41.56 121.68 40.12 125.21 40.12C130.75 40.12 134.67 43.81 134.67 49.29L134.67 49.36ZM128.79 51.23L128.79 51.04L125.26 51.04C123.7 51.04 122.85 51.6 122.85 52.67C122.85 53.78 123.8 54.71 125.41 54.64C128.48 54.51 128.77 51.96 128.79 51.23ZM85.15 24.76L85.15 14.56C85.15 14.16 85.29 13.83 85.56 13.55C85.84 13.27 86.18 13.13 86.57 13.13C86.97 13.13 87.3 13.27 87.58 13.55C87.86 13.83 88 14.16 88 14.56L88 23.6L93.27 23.6C93.62 23.6 93.93 23.73 94.18 23.98C94.43 24.23 94.56 24.54 94.56 24.89C94.56 25.25 94.43 25.56 94.18 25.81C93.93 26.06 93.62 26.19 93.27 26.19L86.57 26.19C86.18 26.19 85.84 26.05 85.56 25.77C85.29 25.49 85.15 25.16 85.15 24.76ZM97.83 24.88L97.83 14.56C97.83 14.16 97.97 13.83 98.25 13.55C98.53 13.27 98.86 13.13 99.26 13.13C99.65 13.13 99.99 13.27 100.26 13.55C100.54 13.83 100.68 14.16 100.68 14.56L100.68 24.88C100.68 25.27 100.54 25.61 100.26 25.88C99.99 26.16 99.65 26.3 99.26 26.3C98.86 26.3 98.53 26.16 98.25 25.88C97.97 25.61 97.83 25.27 97.83 24.88ZM109.63 26.37C107.83 26.37 106.21 25.86 104.77 24.82C104.41 24.57 104.23 24.22 104.23 23.75C104.23 23.38 104.36 23.07 104.62 22.81C104.88 22.56 105.19 22.43 105.56 22.43C105.86 22.43 106.13 22.52 106.38 22.69C107.44 23.47 108.54 23.86 109.69 23.86C110.27 23.86 110.72 23.75 111.06 23.53C111.39 23.32 111.55 23.02 111.55 22.64L111.55 22.6C111.55 22.23 111.38 21.93 111.04 21.7C110.69 21.48 110 21.23 108.95 20.95C108.21 20.77 107.61 20.59 107.15 20.41C106.7 20.23 106.26 19.99 105.85 19.7C105.44 19.4 105.14 19.04 104.94 18.6C104.75 18.16 104.66 17.63 104.66 17L104.66 16.96C104.66 15.79 105.08 14.85 105.92 14.13C106.77 13.42 107.86 13.06 109.19 13.06C110.72 13.06 112.09 13.44 113.29 14.21C113.71 14.45 113.92 14.83 113.92 15.33C113.92 15.7 113.79 16.01 113.53 16.27C113.28 16.52 112.96 16.65 112.59 16.65C112.34 16.65 112.1 16.58 111.87 16.44C110.88 15.86 109.98 15.57 109.15 15.57C108.62 15.57 108.21 15.68 107.92 15.89C107.63 16.1 107.49 16.37 107.49 16.7L107.49 16.74C107.49 17.16 107.66 17.47 108.02 17.68C108.38 17.89 109.13 18.14 110.28 18.44C111.68 18.81 112.72 19.28 113.39 19.86C114.05 20.43 114.38 21.25 114.38 22.32L114.38 22.36C114.38 23.62 113.95 24.6 113.08 25.31C112.21 26.02 111.06 26.37 109.63 26.37ZM120.71 24.88L120.71 15.87L117.97 15.87C117.62 15.87 117.31 15.74 117.05 15.48C116.79 15.22 116.66 14.91 116.66 14.56C116.66 14.2 116.79 13.89 117.05 13.63C117.31 13.37 117.62 13.24 117.97 13.24L126.29 13.24C126.65 13.24 126.96 13.37 127.22 13.63C127.48 13.89 127.61 14.2 127.61 14.56C127.61 14.91 127.48 15.22 127.22 15.48C126.96 15.74 126.65 15.87 126.29 15.87L123.56 15.87L123.56 24.88C123.56 25.27 123.42 25.61 123.14 25.88C122.86 26.16 122.53 26.3 122.13 26.3C121.74 26.3 121.4 26.16 121.12 25.88C120.85 25.61 120.71 25.27 120.71 24.88ZM132.21 26.19C131.82 26.19 131.48 26.05 131.2 25.77C130.93 25.49 130.79 25.16 130.79 24.76L130.79 14.67C130.79 14.27 130.93 13.94 131.2 13.66C131.48 13.38 131.82 13.24 132.21 13.24L139.39 13.24C139.74 13.24 140.05 13.37 140.29 13.61C140.54 13.86 140.66 14.16 140.66 14.52C140.66 14.86 140.54 15.16 140.29 15.41C140.05 15.65 139.74 15.78 139.39 15.78L133.62 15.78L133.62 18.4L138.55 18.4C138.9 18.4 139.2 18.53 139.45 18.78C139.7 19.04 139.83 19.33 139.83 19.68C139.83 20.02 139.71 20.32 139.46 20.57C139.21 20.81 138.91 20.94 138.55 20.94L133.62 20.94L133.62 23.65L139.48 23.65C139.82 23.65 140.12 23.78 140.38 24.03C140.63 24.29 140.76 24.59 140.76 24.93C140.76 25.28 140.63 25.57 140.39 25.82C140.14 26.07 139.84 26.19 139.48 26.19L132.21 26.19ZM144.29 24.89L144.29 14.59C144.29 14.2 144.43 13.86 144.7 13.59C144.98 13.31 145.31 13.17 145.71 13.17L146.01 13.17C146.56 13.17 147.06 13.45 147.49 14L152.98 21.21L152.98 14.54C152.98 14.14 153.12 13.81 153.39 13.54C153.66 13.27 153.99 13.13 154.38 13.13C154.78 13.13 155.11 13.27 155.38 13.54C155.65 13.81 155.79 14.14 155.79 14.54L155.79 24.84C155.79 25.23 155.65 25.57 155.37 25.85C155.1 26.12 154.76 26.26 154.36 26.26L154.27 26.26C153.72 26.26 153.22 25.99 152.79 25.43L147.1 17.96L147.1 24.89C147.1 25.29 146.96 25.62 146.69 25.89C146.42 26.16 146.09 26.3 145.69 26.3C145.3 26.3 144.96 26.16 144.69 25.89C144.42 25.62 144.29 25.29 144.29 24.89ZM177.88 24.46C176.57 25.76 174.92 26.41 172.95 26.41C170.98 26.41 169.34 25.77 168.04 24.48C166.74 23.19 166.09 21.62 166.09 19.75L166.09 19.72C166.09 17.85 166.75 16.27 168.06 14.97C169.37 13.67 171.02 13.02 172.99 13.02C174.96 13.02 176.6 13.67 177.9 14.95C179.2 16.24 179.85 17.82 179.85 19.68L179.85 19.72C179.85 21.58 179.19 23.16 177.88 24.46ZM170.18 22.6C170.92 23.39 171.85 23.78 172.99 23.78C174.12 23.78 175.05 23.4 175.78 22.62C176.51 21.84 176.87 20.89 176.87 19.75L176.87 19.72C176.87 18.58 176.5 17.62 175.76 16.83C175.02 16.04 174.08 15.65 172.95 15.65C171.82 15.65 170.89 16.04 170.16 16.81C169.43 17.59 169.07 18.54 169.07 19.68L169.07 19.72C169.07 20.85 169.44 21.81 170.18 22.6ZM183.49 24.89L183.49 14.59C183.49 14.2 183.63 13.86 183.91 13.59C184.18 13.31 184.52 13.17 184.91 13.17L185.21 13.17C185.77 13.17 186.26 13.45 186.69 14L192.18 21.21L192.18 14.54C192.18 14.14 192.32 13.81 192.59 13.54C192.86 13.27 193.19 13.13 193.59 13.13C193.98 13.13 194.32 13.27 194.59 13.54C194.86 13.81 194.99 14.14 194.99 14.54L194.99 24.84C194.99 25.23 194.85 25.57 194.58 25.85C194.3 26.12 193.96 26.26 193.57 26.26L193.48 26.26C192.92 26.26 192.43 25.99 192 25.43L186.3 17.96L186.3 24.89C186.3 25.29 186.17 25.62 185.89 25.89C185.62 26.16 185.29 26.3 184.9 26.3C184.5 26.3 184.17 26.16 183.9 25.89C183.63 25.62 183.49 25.29 183.49 24.89Z" />
  </g>
</svg>
