<svg width="20" height="26" xmlns="http://www.w3.org/2000/svg"><path d="M18.982 17.364v3.272c0 2.41-1.897 4.364-4.237 4.364h-6.33a4.197 4.197 0 01-3.412-1.776l-3.66-5.118a1.855 1.855 0 01.32-2.497 1.852 1.852 0 012.52.145l2.09 2.155v-1.636h.004l-.004-2.182.019-11.455C6.292 1.733 7.002 1 7.88 1c.878 0 1.589.733 1.589 1.636v11.455V7c0-.904.711-1.636 1.588-1.636.878 0 1.589.732 1.589 1.636v7.09-6c0-.903.711-1.635 1.588-1.635.878 0 1.589.732 1.589 1.636v6-3.818c0-.904.711-1.637 1.588-1.637.878 0 1.589.733 1.589 1.637l-.012 7.09h-.006z" fill="#E30100" stroke="#E10B16" stroke-width="1.5" fill-rule="evenodd" fill-opacity=".2"/></svg>
