<svg width="32" height="32" viewBox="0 0 32 32" fill="none" xmlns="http://www.w3.org/2000/svg">
<g id="Facebook">
<path id="Fill 183" fill-rule="evenodd" clip-rule="evenodd" d="M16 0C7.164 0 0 7.163 0 16C0 24.836 7.164 32 16 32C24.837 32 32 24.836 32 16C32 7.163 24.837 0 16 0Z" fill="#3B5898"/>
<path id="Path" fill-rule="evenodd" clip-rule="evenodd" d="M20.1552 10.656L18.6492 10.657C17.4682 10.657 17.2392 11.218 17.2392 12.041V13.857H20.0562L19.6892 16.702H17.2392V24H14.3022V16.702H11.8462V13.857H14.3022V11.76C14.3022 9.325 15.7892 8 17.9602 8C19.0002 8 19.8942 8.077 20.1552 8.112V10.656Z" fill="white"/>
</g>
</svg>
