<?xml version="1.0" encoding="UTF-8"?>
<svg width="100px" height="30px" viewBox="0 0 100 30" version="1.1" xmlns="http://www.w3.org/2000/svg" xmlns:xlink="http://www.w3.org/1999/xlink">
    <title>spotify-logo</title>
    <g id="Desktop" stroke="none" stroke-width="1" fill="none" fill-rule="evenodd">
        <g id="spotify-logo" fill="#1ED760" fill-rule="nonzero">
            <path d="M15.0261181,0.0494642857 C6.75259392,0.0494642857 0.0452593918,6.74464286 0.0452593918,15.0033929 C0.0452593918,23.2625 6.75259392,29.9571429 15.0261181,29.9571429 C23.3005367,29.9571429 30.0071556,23.2625 30.0071556,15.0033929 C30.0071556,6.74517857 23.3005367,0.0501785714 15.0259392,0.0501785714 L15.0261181,0.0494642857 Z M21.8962433,21.6173214 C21.627907,22.0566071 21.0518784,22.1958929 20.6118068,21.92625 C17.0944544,19.7816071 12.6665474,19.2958929 7.45187835,20.4851786 C6.94937388,20.5994643 6.44847943,20.2851786 6.33398927,19.7833929 C6.21896243,19.2816071 6.53255814,18.7816071 7.03631485,18.6673214 C12.7429338,17.3658929 17.6379249,17.92625 21.5867621,20.3351786 C22.0268336,20.6048214 22.1663685,21.1780357 21.8962433,21.6173214 L21.8962433,21.6173214 Z M23.7298748,17.5455357 C23.391771,18.0941071 22.6726297,18.2673214 22.1234347,17.9298214 C18.0966011,15.4591071 11.9583184,14.7435714 7.19534884,16.1867857 C6.57763864,16.3730357 5.92522361,16.0255357 5.73774597,15.41 C5.55169946,14.7933929 5.9,14.1433929 6.51663685,13.9558929 C11.9572451,12.3080357 18.7209302,13.10625 23.3452594,15.9428571 C23.8944544,16.2803571 24.0679785,16.9982143 23.7298748,17.5457143 L23.7298748,17.5455357 Z M23.8872987,13.3055357 C19.059034,10.4428571 11.0930233,10.1796429 6.48318426,11.57625 C5.74293381,11.8003571 4.96010733,11.3832143 4.73577818,10.6442857 C4.51144902,9.905 4.92898032,9.12410714 5.66976744,8.89946429 C10.9615385,7.29589286 19.7584973,7.60571429 25.3173524,10.8998214 C25.9846154,11.2942857 26.2028623,12.1526786 25.8075134,12.8164286 C25.4139535,13.4810714 24.5516995,13.7001786 23.8880143,13.3055357 L23.8872987,13.3055357 Z M40.80322,13.8541071 C38.216458,13.2383929 37.7567084,12.80625 37.7567084,11.8982143 C37.7567084,11.0403571 38.5652952,10.4630357 39.7692308,10.4630357 C40.9355993,10.4630357 42.0912343,10.9014286 43.3041145,11.8039286 C43.3398927,11.83125 43.3864043,11.8421429 43.431127,11.835 C43.4776386,11.8282143 43.5169946,11.8033929 43.5438283,11.7660714 L44.8067979,9.98892857 C44.8586762,9.91571429 44.8443649,9.81482143 44.7745975,9.75892857 C43.3309481,8.60303571 41.706619,8.04107143 39.8067979,8.04107143 C37.0143113,8.04107143 35.0626118,9.71410714 35.0626118,12.1078571 C35.0626118,14.6748214 36.745975,15.58375 39.6547406,16.2853571 C42.1288014,16.8544643 42.5474061,17.33125 42.5474061,18.1833929 C42.5474061,19.1280357 41.7030411,19.7155357 40.3434705,19.7155357 C38.8336315,19.7155357 37.6010733,19.2066071 36.2236136,18.0173214 C36.1896243,17.9869643 36.1431127,17.9744643 36.1001789,17.97625 C36.0536673,17.9798214 36.0125224,18.00125 35.9838998,18.0351786 L34.5670841,19.7173214 C34.5080501,19.78875 34.5152057,19.8923214 34.5831843,19.9530357 C36.1860465,21.3816071 38.157424,22.1351786 40.2862254,22.1351786 C43.2951699,22.1351786 45.2397305,20.4941071 45.2397305,17.9530357 C45.2450805,15.8089286 43.9588551,14.6214286 40.8085868,13.8564286 L40.80322,13.8541071 Z M52.0483005,11.3076786 C50.744186,11.3076786 49.6744186,11.8205357 48.7906977,12.8714286 L48.7906977,11.6885714 C48.7906977,11.5951786 48.7155635,11.5191071 48.6225403,11.5191071 L46.3059034,11.5191071 C46.2128801,11.5191071 46.137746,11.5951786 46.137746,11.6885714 L46.137746,24.8316071 C46.137746,24.9244643 46.2128801,25.00125 46.3059034,25.00125 L48.6225403,25.00125 C48.7155635,25.00125 48.7906977,24.9244643 48.7906977,24.8316071 L48.7906977,20.6833929 C49.6744186,21.6708929 50.744186,22.1548214 52.0483005,22.1548214 C54.4722719,22.1548214 56.9266586,20.2923214 56.9266586,16.7317857 C56.9302326,13.1705357 54.4758497,11.3075 52.0500894,11.3075 L52.0483005,11.3076786 Z M54.2325581,16.7317857 C54.2325581,18.5441071 53.1144902,19.8101786 51.5116279,19.8101786 C49.9284436,19.8101786 48.7334526,18.4869643 48.7334526,16.7317857 C48.7334526,14.9764286 49.9284436,13.6535714 51.5116279,13.6535714 C53.0876565,13.6533929 54.2325581,14.9476786 54.2325581,16.7316071 L54.2325581,16.7317857 Z M63.2146691,11.3076786 C60.0930233,11.3076786 57.647585,13.7069643 57.647585,16.7705357 C57.647585,19.80125 60.0769231,22.1744643 63.177102,22.1744643 C66.3094812,22.1744643 68.7620751,19.7833929 68.7620751,16.7317857 C68.7620751,13.6905357 66.3255814,11.3080357 63.2146691,11.3080357 L63.2146691,11.3076786 L63.2146691,11.3076786 Z M63.2146691,19.8280357 C61.5545617,19.8280357 60.3023256,18.4958929 60.3023256,16.7308929 C60.3023256,14.9578571 61.5116279,13.67125 63.177102,13.67125 C64.8479428,13.67125 66.1073345,15.0028571 66.1073345,16.7696429 C66.1073345,18.5423214 64.8908766,19.8280357 63.2146691,19.8280357 L63.2146691,19.8280357 Z M75.4275492,11.5191071 L72.8783542,11.5191071 L72.8783542,8.91803571 C72.8783542,8.82482143 72.80322,8.74875 72.7101968,8.74875 L70.3935599,8.74875 C70.3005367,8.74875 70.2236136,8.82482143 70.2236136,8.91803571 L70.2236136,11.5191071 L69.1109123,11.5191071 C69.0178891,11.5191071 68.9427549,11.5951786 68.9427549,11.6885714 L68.9427549,13.6755357 C68.9427549,13.76875 69.0178891,13.845 69.1109123,13.845 L70.2236136,13.845 L70.2236136,18.9869643 C70.2236136,21.06375 71.2593918,22.1173214 73.3041145,22.1173214 C74.1341682,22.1173214 74.822898,21.9458929 75.4722719,21.5780357 C75.5259392,21.5494643 75.5581395,21.4923214 75.5581395,21.4316071 L75.5581395,19.53875 C75.5581395,19.4816071 75.5277281,19.42625 75.4776386,19.3958929 C75.4275492,19.36375 75.3649374,19.3619643 75.313059,19.38875 C74.8676208,19.6119643 74.4364937,19.7155357 73.9534884,19.7155357 C73.2110912,19.7155357 72.8783542,19.3780357 72.8783542,18.6244643 L72.8783542,13.8458929 L75.4275492,13.8458929 C75.5205725,13.8458929 75.5957066,13.7698214 75.5957066,13.6764286 L75.5957066,11.6896429 C75.5992844,11.59625 75.5241503,11.5201786 75.4293381,11.5201786 L75.4275492,11.5191071 L75.4275492,11.5191071 Z M84.3076923,11.5292857 L84.3076923,11.2098214 C84.3076923,10.27 84.6690519,9.85089286 85.4776386,9.85089286 C85.960644,9.85089286 86.3488372,9.94660714 86.783542,10.09125 C86.8372093,10.1080357 86.8926655,10.0996429 86.9355993,10.0676786 C86.980322,10.0357143 87.0053667,9.98446429 87.0053667,9.93017857 L87.0053667,7.98196429 C87.0053667,7.9075 86.9588551,7.84160714 86.8855098,7.81964286 C86.4275492,7.68339286 85.8407871,7.54357143 84.960644,7.54357143 C82.822898,7.54357143 81.6905188,8.74607143 81.6905188,11.0198214 L81.6905188,11.5091071 L80.5778175,11.5091071 C80.4847943,11.5091071 80.4078712,11.5851786 80.4078712,11.6783929 L80.4078712,13.6755357 C80.4078712,13.76875 80.4847943,13.845 80.5778175,13.845 L81.6905188,13.845 L81.6905188,21.7744643 C81.6905188,21.8691071 81.7674419,21.9441071 81.8604651,21.9441071 L84.1753131,21.9441071 C84.2701252,21.9441071 84.3452594,21.8691071 84.3452594,21.7744643 L84.3452594,13.8455357 L86.5080501,13.8455357 L89.8211091,21.7744643 C89.4454383,22.6066071 89.0751342,22.7726786 88.5706619,22.7726786 C88.1627907,22.7726786 87.7316637,22.65125 87.293381,22.4101786 C87.2522361,22.38875 87.2021467,22.3851786 87.1592129,22.3976786 C87.1144902,22.41375 87.0769231,22.4458929 87.059034,22.48875 L86.273703,24.2083929 C86.236136,24.2905357 86.2683363,24.3851786 86.3470483,24.4280357 C87.1663685,24.8708929 87.9051878,25.0601786 88.8193202,25.0601786 C90.529517,25.0601786 91.4758497,24.26375 92.3076923,22.1244643 L96.3255814,11.7607143 C96.3470483,11.7085714 96.3398927,11.6496429 96.3076923,11.6033929 C96.2772809,11.5575 96.2254025,11.5298214 96.1699463,11.5298214 L93.7584973,11.5298214 C93.6851521,11.5298214 93.6207513,11.5757143 93.5974955,11.6433929 L91.1270125,18.6851786 L88.4221825,11.63875 C88.3971377,11.5732143 88.3345259,11.5298214 88.2647585,11.5298214 L84.3076923,11.5298214 L84.3076923,11.5292857 L84.3076923,11.5292857 Z M79.1592129,11.5191071 L76.842576,11.5191071 C76.7495528,11.5191071 76.6726297,11.5951786 76.6726297,11.6885714 L76.6726297,21.7744643 C76.6726297,21.8691071 76.7495528,21.9441071 76.842576,21.9441071 L79.1592129,21.9441071 C79.2522361,21.9441071 79.3291592,21.8691071 79.3291592,21.7744643 L79.3291592,11.6892857 C79.3291592,11.5958929 79.254025,11.5198214 79.1592129,11.5198214 L79.1592129,11.5191071 Z M78.0143113,6.92642857 C77.0966011,6.92642857 76.352415,7.66785714 76.352415,8.58375 C76.352415,9.50017857 77.0966011,10.2425 78.0143113,10.2425 C78.9320215,10.2425 79.6744186,9.50017857 79.6744186,8.58375 C79.6744186,7.66803571 78.9302326,6.92642857 78.0143113,6.92642857 Z M98.3041145,14.7621429 C97.3881932,14.7621429 96.6744186,14.0273214 96.6744186,13.135 C96.6744186,12.2426786 97.3971377,11.4994643 98.313059,11.4994643 C99.2289803,11.4994643 99.9427549,12.2341071 99.9427549,13.1257143 C99.9427549,14.0180357 99.2200358,14.7621429 98.3041145,14.7621429 Z M98.313059,11.66125 C97.4776386,11.66125 96.8461538,12.32375 96.8461538,13.135 C96.8461538,13.9458929 97.4740608,14.5994643 98.3041145,14.5994643 C99.1395349,14.5994643 99.7710197,13.9375 99.7710197,13.1257143 C99.7710197,12.3148214 99.1431127,11.66125 98.313059,11.66125 L98.313059,11.66125 Z M98.6744186,13.2930357 L99.1359571,13.9373214 L98.745975,13.9373214 L98.3309481,13.34625 L97.9749553,13.34625 L97.9749553,13.9373214 L97.6493739,13.9373214 L97.6493739,12.2294643 L98.411449,12.2294643 C98.8103757,12.2294643 99.0715564,12.4325 99.0715564,12.7742857 C99.0733453,13.0542857 98.9105546,13.2253571 98.6762075,13.2930357 L98.6744186,13.2930357 Z M98.3989267,12.5225 L97.9749553,12.5225 L97.9749553,13.0626786 L98.3989267,13.0626786 C98.6100179,13.0626786 98.7370304,12.9592857 98.7370304,12.7923214 C98.7370304,12.6166071 98.6100179,12.5225 98.3989267,12.5225 L98.3989267,12.5225 Z" id="Shape"></path>
        </g>
    </g>
</svg>