<?xml version="1.0" encoding="UTF-8"?>
<svg width="23px" height="19px" viewBox="0 0 23 19" version="1.1" xmlns="http://www.w3.org/2000/svg" xmlns:xlink="http://www.w3.org/1999/xlink">
    <title>Path</title>
    <g id="Desktop" stroke="none" stroke-width="1" fill="none" fill-rule="evenodd">
        <g id="Default-Player---Chat---Login-Modal" transform="translate(-644.000000, -371.000000)" fill="#FFFFFF" fill-rule="nonzero">
            <g id="Group-14" transform="translate(507.000000, 175.000000)">
                <g id="Group-32" transform="translate(66.000000, 104.000000)">
                    <g id="Group-7-Copy" transform="translate(0.000000, 74.000000)">
                        <g id="Group-22" transform="translate(71.000000, 16.000000)">
                            <path d="M22.8315405,4.15232831 C21.9914862,4.51739187 21.0887137,4.76412279 20.1411785,4.87509033 C21.1083392,4.30699545 21.8510177,3.407471 22.200769,2.33568498 C21.2957417,2.8616351 20.2932552,3.24363839 19.2262967,3.44953392 C18.3717946,2.55745639 17.1544298,2 15.8072028,2 C13.2202294,2 11.1228912,4.05510897 11.1228912,6.58993157 C11.1228912,6.94967589 11.164397,7.30000925 11.2442351,7.63593973 C7.35120654,7.44452891 3.89970964,5.61716527 1.58941395,2.84019447 C1.18621457,3.51811119 0.955218413,4.30658629 0.955218413,5.14776277 C0.955218413,6.74017966 1.78224481,8.14511379 3.03911113,8.96820485 C2.27121174,8.94439103 1.54899379,8.73792267 0.917387148,8.39413607 C0.917053103,8.41328534 0.917053103,8.43251643 0.917053103,8.45182937 C0.917053103,10.6757628 2.53168789,12.5309502 4.67454058,12.9525614 C4.28144625,13.0574732 3.86764075,13.1135298 3.44038972,13.1135298 C3.13857477,13.1135298 2.8451111,13.0848058 2.55916357,13.0312043 C3.1551938,14.8548036 4.88507613,16.1818313 6.93481215,16.2189023 C5.33170212,17.4499381 3.31194716,18.1837479 1.11740009,18.1837479 C0.739338046,18.1837479 0.366453783,18.1620617 3.55271368e-14,18.1196714 C2.07295256,19.4219851 4.53515787,20.1818182 7.18042305,20.1818182 C15.7962626,20.1818182 20.5077158,13.1876718 20.5077158,7.12218295 C20.5077158,6.92316153 20.5032061,6.72520396 20.4941867,6.52839206 C21.409319,5.88124509 22.203525,5.0728024 22.8315405,4.15232831" id="Path"></path>
                        </g>
                    </g>
                </g>
            </g>
        </g>
    </g>
</svg>